<svg width="63" height="71" viewBox="0 0 63 71" fill="none" xmlns="http://www.w3.org/2000/svg">
<path d="M36.27 2.34137L36.433 1.19995H35.28H27.68H26.3644L26.7165 2.4676C26.8877 3.08413 27.043 4.25693 27.1529 5.69612C27.2609 7.11004 27.32 8.70462 27.32 10.1199V10.1316L27.3203 10.1432C27.3999 13.5685 27.4 20.1137 27.4 24.76C27.4 29.2939 27.6834 36.081 27.9827 42.2538C26.0929 42.0312 24.1936 41.92 22.24 41.92C15.1934 41.92 9.9231 43.4249 6.38622 45.968C2.8181 48.5336 1.08 52.1142 1.08 56.04C1.08 60.9659 3.3175 64.4474 7.03144 66.641C10.6742 68.7925 15.6826 69.68 21.28 69.68C26.7691 69.68 30.7088 68.2336 33.2798 65.7839C35.8545 63.3308 36.92 60.0017 36.92 56.52C36.92 55.419 36.8741 54.091 36.8176 52.6215C44.4094 55.5828 51.11 60.3301 55.8474 65.1416L56.7321 66.0401L57.4055 64.9739L61.2455 58.8939L61.6952 58.182L61.0701 57.6177C55.3418 52.4463 46.5959 46.8956 36.4776 43.9898C36.1001 37.3672 35.7367 30.1599 35.7206 25.1053C42.3088 24.9921 51.9339 24.5232 58.7406 23.8349L59.6768 23.7402L59.6392 22.8L59.3992 16.8L59.3558 15.7157L58.2787 15.8473C51.5051 16.6752 42.0646 17.0772 35.7174 17.2531C35.7139 16.5038 35.7072 15.7771 35.7007 15.0778C35.6835 13.2121 35.668 11.5413 35.7193 10.157L35.7194 10.1533C35.7993 7.75842 36.0381 3.96422 36.27 2.34137ZM9.48 55.8C9.48 54.0269 10.4038 52.5059 12.3683 51.377C14.3702 50.2265 17.4156 49.52 21.44 49.52C23.7499 49.52 26.0491 49.708 28.2839 50.1364C28.2907 50.8771 28.3055 51.5695 28.3203 52.2032C28.3227 52.3074 28.3251 52.4099 28.3275 52.5106C28.3449 53.2476 28.36 53.8899 28.36 54.44C28.36 57.0346 27.6855 58.786 26.5032 59.9031C25.31 61.0305 23.423 61.68 20.64 61.68C16.883 61.68 14.0387 61.0694 12.1703 60.0184C10.3551 58.9973 9.48 57.5847 9.48 55.8Z" fill="#C4C4C4" stroke="#583333" stroke-width="2"/>
</svg>
